<svg width="20" height="20" viewBox="0 0 20 20" fill="none" xmlns="http://www.w3.org/2000/svg">
<path d="M9.99163 1.66675C5.39163 1.66675 1.66663 5.40008 1.66663 10.0001C1.66663 14.6001 5.39163 18.3334 9.99163 18.3334C14.6 18.3334 18.3333 14.6001 18.3333 10.0001C18.3333 5.40008 14.6 1.66675 9.99163 1.66675ZM9.99996 16.6667C6.31663 16.6667 3.33329 13.6834 3.33329 10.0001C3.33329 6.31675 6.31663 3.33341 9.99996 3.33341C13.6833 3.33341 16.6666 6.31675 16.6666 10.0001C16.6666 13.6834 13.6833 16.6667 9.99996 16.6667Z" fill="#0F2125"/>
<path d="M10.4166 5.83325H9.16663V10.8333L13.5416 13.4583L14.1666 12.4333L10.4166 10.2083V5.83325Z" fill="black"/>
</svg>
